<mxfile host="65bd71144e">
    <diagram id="6SCfQq9EaUZtuB3djkDO" name="Page-1">
        <mxGraphModel dx="-1002" dy="1535" grid="1" gridSize="10" guides="1" tooltips="1" connect="1" arrows="1" fold="1" page="1" pageScale="1" pageWidth="850" pageHeight="1100" background="#ffffff" math="0" shadow="0">
            <root>
                <mxCell id="0"/>
                <mxCell id="1" parent="0"/>
                <mxCell id="2" value="" style="strokeWidth=1;shadow=0;dashed=0;align=center;html=1;shape=mxgraph.mockup.containers.browserWindow;rSize=0;strokeColor=#36393d;strokeColor2=#008cff;strokeColor3=#c4c4c4;mainText=,;recursiveResize=0;fillColor=#eeeeee;" parent="1" vertex="1">
                    <mxGeometry x="2140" y="-600" width="440" height="530" as="geometry"/>
                </mxCell>
                <mxCell id="3" value="Page 1" style="strokeWidth=1;shadow=0;dashed=0;align=center;html=1;shape=mxgraph.mockup.containers.anchor;fontSize=17;fontColor=#666666;align=left;" parent="2" vertex="1">
                    <mxGeometry x="60" y="12" width="110" height="26" as="geometry"/>
                </mxCell>
                <mxCell id="4" value="https://www.draw.io" style="strokeWidth=1;shadow=0;dashed=0;align=center;html=1;shape=mxgraph.mockup.containers.anchor;rSize=0;fontSize=17;fontColor=#666666;align=left;" parent="2" vertex="1">
                    <mxGeometry x="130" y="60" width="250" height="26" as="geometry"/>
                </mxCell>
                <mxCell id="5" value="Confirmar" style="html=1;shadow=0;dashed=0;shape=mxgraph.bootstrap.rrect;rSize=5;strokeColor=none;strokeWidth=1;fillColor=#666666;fontColor=#FFFFFF;whiteSpace=wrap;align=center;verticalAlign=middle;spacingLeft=0;fontStyle=0;fontSize=16;spacing=5;" parent="2" vertex="1">
                    <mxGeometry x="175" y="450" width="90" height="50" as="geometry"/>
                </mxCell>
                <mxCell id="7" value="&lt;font color=&quot;#46464e&quot;&gt;&lt;b style=&quot;&quot;&gt;Inicio&amp;nbsp;&lt;/b&gt; &amp;nbsp; &amp;nbsp; &amp;nbsp; &amp;nbsp; &amp;nbsp; &amp;nbsp;&lt;/font&gt;" style="html=1;shadow=0;dashed=0;fillColor=#F8F9FA;strokeColor=none;fontSize=16;fontColor=#7C7C7D;align=left;spacing=15;" parent="2" vertex="1">
                    <mxGeometry y="110" width="440" height="60" as="geometry"/>
                </mxCell>
                <mxCell id="28" value="" style="rounded=1;whiteSpace=wrap;html=1;fillColor=#f5f4f5;" vertex="1" parent="2">
                    <mxGeometry x="50" y="210" width="340" height="40" as="geometry"/>
                </mxCell>
                <mxCell id="29" value="User Surname" style="text;html=1;strokeColor=none;fillColor=none;align=center;verticalAlign=middle;whiteSpace=wrap;rounded=0;fontColor=#0d0d0d;" vertex="1" parent="2">
                    <mxGeometry x="70" y="215" width="90" height="30" as="geometry"/>
                </mxCell>
                <mxCell id="30" value="Name Surname" style="text;html=1;strokeColor=none;fillColor=none;align=center;verticalAlign=middle;whiteSpace=wrap;rounded=0;fontColor=#0d0d0d;" vertex="1" parent="2">
                    <mxGeometry x="70" y="180" width="90" height="30" as="geometry"/>
                </mxCell>
                <mxCell id="31" value="Hora entrada" style="text;html=1;strokeColor=none;fillColor=none;align=center;verticalAlign=middle;whiteSpace=wrap;rounded=0;fontColor=#0d0d0d;" vertex="1" parent="2">
                    <mxGeometry x="190" y="180" width="90" height="30" as="geometry"/>
                </mxCell>
                <mxCell id="32" value="Hora salida" style="text;html=1;strokeColor=none;fillColor=none;align=center;verticalAlign=middle;whiteSpace=wrap;rounded=0;fontColor=#0d0d0d;" vertex="1" parent="2">
                    <mxGeometry x="290" y="180" width="90" height="30" as="geometry"/>
                </mxCell>
                <mxCell id="43" value="8:00" style="text;html=1;strokeColor=none;fillColor=none;align=center;verticalAlign=middle;whiteSpace=wrap;rounded=0;fontColor=#0d0d0d;" vertex="1" parent="2">
                    <mxGeometry x="190" y="215" width="90" height="30" as="geometry"/>
                </mxCell>
                <mxCell id="44" value="15:00" style="text;html=1;strokeColor=none;fillColor=none;align=center;verticalAlign=middle;whiteSpace=wrap;rounded=0;fontColor=#0d0d0d;" vertex="1" parent="2">
                    <mxGeometry x="290" y="215" width="90" height="30" as="geometry"/>
                </mxCell>
                <mxCell id="45" value="" style="rounded=1;whiteSpace=wrap;html=1;fillColor=#f5f4f5;" vertex="1" parent="2">
                    <mxGeometry x="50" y="260" width="340" height="40" as="geometry"/>
                </mxCell>
                <mxCell id="46" value="User Surname" style="text;html=1;strokeColor=none;fillColor=none;align=center;verticalAlign=middle;whiteSpace=wrap;rounded=0;fontColor=#0d0d0d;" vertex="1" parent="2">
                    <mxGeometry x="70" y="265" width="90" height="30" as="geometry"/>
                </mxCell>
                <mxCell id="47" value="8:00" style="text;html=1;strokeColor=none;fillColor=none;align=center;verticalAlign=middle;whiteSpace=wrap;rounded=0;fontColor=#0d0d0d;" vertex="1" parent="2">
                    <mxGeometry x="190" y="265" width="90" height="30" as="geometry"/>
                </mxCell>
                <mxCell id="48" value="15:00" style="text;html=1;strokeColor=none;fillColor=none;align=center;verticalAlign=middle;whiteSpace=wrap;rounded=0;fontColor=#0d0d0d;" vertex="1" parent="2">
                    <mxGeometry x="290" y="265" width="90" height="30" as="geometry"/>
                </mxCell>
                <mxCell id="49" value="" style="rounded=1;whiteSpace=wrap;html=1;fillColor=#f5f4f5;" vertex="1" parent="2">
                    <mxGeometry x="50" y="310" width="340" height="40" as="geometry"/>
                </mxCell>
                <mxCell id="50" value="User Surname" style="text;html=1;strokeColor=none;fillColor=none;align=center;verticalAlign=middle;whiteSpace=wrap;rounded=0;fontColor=#0d0d0d;" vertex="1" parent="2">
                    <mxGeometry x="70" y="315" width="90" height="30" as="geometry"/>
                </mxCell>
                <mxCell id="51" value="8:00" style="text;html=1;strokeColor=none;fillColor=none;align=center;verticalAlign=middle;whiteSpace=wrap;rounded=0;fontColor=#0d0d0d;" vertex="1" parent="2">
                    <mxGeometry x="190" y="315" width="90" height="30" as="geometry"/>
                </mxCell>
                <mxCell id="52" value="15:00" style="text;html=1;strokeColor=none;fillColor=none;align=center;verticalAlign=middle;whiteSpace=wrap;rounded=0;fontColor=#0d0d0d;" vertex="1" parent="2">
                    <mxGeometry x="290" y="315" width="90" height="30" as="geometry"/>
                </mxCell>
                <mxCell id="53" value="" style="rounded=1;whiteSpace=wrap;html=1;fillColor=#f5f4f5;" vertex="1" parent="2">
                    <mxGeometry x="50" y="360" width="340" height="40" as="geometry"/>
                </mxCell>
                <mxCell id="54" value="User Surname" style="text;html=1;strokeColor=none;fillColor=none;align=center;verticalAlign=middle;whiteSpace=wrap;rounded=0;fontColor=#0d0d0d;" vertex="1" parent="2">
                    <mxGeometry x="70" y="365" width="90" height="30" as="geometry"/>
                </mxCell>
                <mxCell id="55" value="8:00" style="text;html=1;strokeColor=none;fillColor=none;align=center;verticalAlign=middle;whiteSpace=wrap;rounded=0;fontColor=#0d0d0d;" vertex="1" parent="2">
                    <mxGeometry x="190" y="365" width="90" height="30" as="geometry"/>
                </mxCell>
                <mxCell id="56" value="15:00" style="text;html=1;strokeColor=none;fillColor=none;align=center;verticalAlign=middle;whiteSpace=wrap;rounded=0;fontColor=#0d0d0d;" vertex="1" parent="2">
                    <mxGeometry x="290" y="365" width="90" height="30" as="geometry"/>
                </mxCell>
            </root>
        </mxGraphModel>
    </diagram>
</mxfile>